; NON-PLATED HOLES START AT T1
; THROUGH (PLATED) HOLES START AT T100
M48
INCH
T100C0.038000
T101C0.035000
%
T100
X006998Y014596
X001210Y011596
X001210Y007596
X001210Y008596
X001210Y010596
X001210Y015596
X006998Y011596
X001210Y009596
X001210Y013596
X006998Y008596
X001210Y016596
X006998Y006596
X006998Y013596
X001210Y020596
X006998Y015596
X006998Y018596
X001210Y018596
X006998Y009596
X001210Y012596
X001210Y019596
X006998Y012596
X006998Y007596
X006998Y017596
X001210Y005596
X006998Y020596
X001210Y017596
X001210Y014596
X006998Y016596
X006998Y019596
X006998Y010596
X001210Y006596
X006998Y005596
T101
X005628Y012596
X002628Y015596
X002628Y018596
X005628Y019596
X005628Y013596
X005628Y011596
X005628Y017596
X002628Y014596
X002628Y011596
X005628Y015596
X002628Y016596
X002628Y010596
X002628Y012596
X002628Y019596
X002628Y017596
X005628Y010596
X002628Y013596
X005628Y016596
X005628Y018596
X005628Y014596
T00
M30
